<svg width="512" height="512" viewBox="0 0 680 680" role="img" xmlns="http://www.w3.org/2000/svg">
<title>Starlight Astrology icon</title>
<defs>
  <radialGradient id="bg19" cx="50%" cy="50%" r="50%">
    <stop offset="0%" stop-color="#0e0a28"/>
    <stop offset="100%" stop-color="#04040f"/>
  </radialGradient>
  <radialGradient id="cg19" cx="50%" cy="50%" r="50%">
    <stop offset="0%" stop-color="#1a1040"/>
    <stop offset="100%" stop-color="#04040f"/>
  </radialGradient>
  <radialGradient id="sg19" cx="50%" cy="50%" r="50%">
    <stop offset="0%" stop-color="#bf5fff"/>
    <stop offset="100%" stop-color="#7a1fa0"/>
  </radialGradient>
</defs>

<rect width="680" height="680" fill="url(#bg19)" rx="340"/>

<g font-family="serif" font-size="26" font-weight="900" letter-spacing="2" text-anchor="middle">
  <g transform="rotate(-75,340,340)"><text x="340" y="26" fill="#ff6030">ARI</text></g>
  <g transform="rotate(-45,340,340)"><text x="340" y="26" fill="#ffd700">TAU</text></g>
  <g transform="rotate(-15,340,340)"><text x="340" y="26" fill="#00f5ff">GEM</text></g>
  <g transform="rotate(15, 340,340)"><text x="340" y="26" fill="#bf5fff">CAN</text></g>
  <g transform="rotate(45, 340,340)"><text x="340" y="26" fill="#ff6030">LEO</text></g>
  <g transform="rotate(75, 340,340)"><text x="340" y="26" fill="#ffd700">VIR</text></g>
  <g transform="rotate(105,340,340)"><text x="340" y="26" fill="#00f5ff" transform="rotate(180,340,26)">LIB</text></g>
  <g transform="rotate(135,340,340)"><text x="340" y="26" fill="#bf5fff" transform="rotate(180,340,26)">SCO</text></g>
  <g transform="rotate(165,340,340)"><text x="340" y="26" fill="#ff6030" transform="rotate(180,340,26)">SAG</text></g>
  <g transform="rotate(195,340,340)"><text x="340" y="26" fill="#ffd700" transform="rotate(180,340,26)">CAP</text></g>
  <g transform="rotate(225,340,340)"><text x="340" y="26" fill="#00f5ff" transform="rotate(180,340,26)">AQU</text></g>
  <g transform="rotate(255,340,340)"><text x="340" y="26" fill="#bf5fff" transform="rotate(180,340,26)">PIS</text></g>
</g>

<g transform="translate(340,340)">
<circle r="193" fill="url(#cg19)" opacity="0.95"/>
<path d="M0,-285 A285,285 0 0,1 142.5,-246.9 L97.5,-168.8 A195,195 0 0,0 0,-195 Z" fill="#ff6030" opacity="0.88"/>
<path d="M246.9,142.5 A285,285 0 0,1 142.5,246.9 L97.5,168.8 A195,195 0 0,0 168.8,97.5 Z" fill="#ff6030" opacity="0.88"/>
<path d="M-142.5,246.9 A285,285 0 0,1 -285,0 L-195,0 A195,195 0 0,0 -97.5,168.8 Z" fill="#ff6030" opacity="0.88"/>
<path d="M142.5,-246.9 A285,285 0 0,1 246.9,-142.5 L168.8,-97.5 A195,195 0 0,0 97.5,-168.8 Z" fill="#ffd700" opacity="0.85"/>
<path d="M142.5,246.9 A285,285 0 0,1 0,285 L0,195 A195,195 0 0,0 97.5,168.8 Z" fill="#ffd700" opacity="0.85"/>
<path d="M-285,0 A285,285 0 0,1 -246.9,-142.5 L-168.8,-97.5 A195,195 0 0,0 -195,0 Z" fill="#ffd700" opacity="0.85"/>
<path d="M246.9,-142.5 A285,285 0 0,1 285,0 L195,0 A195,195 0 0,0 168.8,-97.5 Z" fill="#00f5ff" opacity="0.78"/>
<path d="M0,285 A285,285 0 0,1 -142.5,246.9 L-97.5,168.8 A195,195 0 0,0 0,195 Z" fill="#00f5ff" opacity="0.78"/>
<path d="M-246.9,-142.5 A285,285 0 0,1 -142.5,-246.9 L-97.5,-168.8 A195,195 0 0,0 -168.8,-97.5 Z" fill="#00f5ff" opacity="0.78"/>
<path d="M285,0 A285,285 0 0,1 246.9,142.5 L168.8,97.5 A195,195 0 0,0 195,0 Z" fill="#bf5fff" opacity="0.85"/>
<path d="M-142.5,246.9 A285,285 0 0,1 -246.9,142.5 L-168.8,97.5 A195,195 0 0,0 -97.5,168.8 Z" fill="#bf5fff" opacity="0.85"/>
<path d="M-142.5,-246.9 A285,285 0 0,1 0,-285 L0,-195 A195,195 0 0,0 -97.5,-168.8 Z" fill="#bf5fff" opacity="0.85"/>
<g stroke="#04040f" stroke-width="2.5" opacity="0.95">
  <line x1="0" y1="-195" x2="0" y2="-285"/>
  <line x1="97.5" y1="-168.8" x2="142.5" y2="-246.9"/>
  <line x1="168.8" y1="-97.5" x2="246.9" y2="-142.5"/>
  <line x1="195" y1="0" x2="285" y2="0"/>
  <line x1="168.8" y1="97.5" x2="246.9" y2="142.5"/>
  <line x1="97.5" y1="168.8" x2="142.5" y2="246.9"/>
  <line x1="0" y1="195" x2="0" y2="285"/>
  <line x1="-97.5" y1="168.8" x2="-142.5" y2="246.9"/>
  <line x1="-168.8" y1="97.5" x2="-246.9" y2="142.5"/>
  <line x1="-195" y1="0" x2="-285" y2="0"/>
  <line x1="-168.8" y1="-97.5" x2="-246.9" y2="-142.5"/>
  <line x1="-97.5" y1="-168.8" x2="-142.5" y2="-246.9"/>
</g>
<circle r="285" fill="none" stroke="#bf5fff" stroke-width="2.5" opacity="0.8"/>
<circle r="195" fill="none" stroke="#bf5fff" stroke-width="1.5" opacity="0.6"/>
<g stroke="#ffd700" stroke-width="3.2" opacity="0.7" fill="none">
  <line x1="0" y1="-185" x2="0" y2="185"/>
  <line x1="160.3" y1="-92.5" x2="-160.3" y2="92.5"/>
  <line x1="160.3" y1="92.5" x2="-160.3" y2="-92.5"/>
</g>
<polygon points="0,-185 160.3,92.5 -160.3,92.5" fill="none" stroke="#00f5ff" stroke-width="3.5" opacity="0.8"/>
<polygon points="0,-185 160.3,-92.5 160.3,92.5 0,185 -160.3,92.5 -160.3,-92.5" fill="none" stroke="#bf5fff" stroke-width="3.0" opacity="0.65"/>
<g stroke="#ff7eb3" stroke-width="2.5" opacity="0.55" fill="none">
  <line x1="0" y1="-185" x2="92.5" y2="160.3"/>
  <line x1="0" y1="-185" x2="-92.5" y2="160.3"/>
  <line x1="92.5" y1="-160.3" x2="-160.3" y2="92.5"/>
  <line x1="-92.5" y1="-160.3" x2="160.3" y2="92.5"/>
  <line x1="160.3" y1="-92.5" x2="-160.3" y2="92.5"/>
  <line x1="-160.3" y1="-92.5" x2="160.3" y2="92.5"/>
</g>
<g stroke="#5a5470" stroke-width="1.4" opacity="0.3">
  <line x1="0" y1="0" x2="0" y2="-185"/>
  <line x1="0" y1="0" x2="92.5" y2="-160.3"/>
  <line x1="0" y1="0" x2="160.3" y2="-92.5"/>
  <line x1="0" y1="0" x2="185" y2="0"/>
  <line x1="0" y1="0" x2="160.3" y2="92.5"/>
  <line x1="0" y1="0" x2="92.5" y2="160.3"/>
  <line x1="0" y1="0" x2="0" y2="185"/>
  <line x1="0" y1="0" x2="-92.5" y2="160.3"/>
  <line x1="0" y1="0" x2="-160.3" y2="92.5"/>
  <line x1="0" y1="0" x2="-185" y2="0"/>
  <line x1="0" y1="0" x2="-160.3" y2="-92.5"/>
  <line x1="0" y1="0" x2="-92.5" y2="-160.3"/>
</g>
<g fill="#bf5fff" opacity="0.9">
  <circle cx="0" cy="-185" r="5"/><circle cx="92.5" cy="-160.3" r="5"/>
  <circle cx="160.3" cy="-92.5" r="5"/><circle cx="185" cy="0" r="5"/>
  <circle cx="160.3" cy="92.5" r="5"/><circle cx="92.5" cy="160.3" r="5"/>
  <circle cx="0" cy="185" r="5"/><circle cx="-92.5" cy="160.3" r="5"/>
  <circle cx="-160.3" cy="92.5" r="5"/><circle cx="-185" cy="0" r="5"/>
  <circle cx="-160.3" cy="-92.5" r="5"/><circle cx="-92.5" cy="-160.3" r="5"/>
</g>
<circle r="55" fill="#04040f" stroke="#bf5fff" stroke-width="2" opacity="0.98"/>
<polygon points="0,-48 11.5,-19.5 34,-34 19.5,-11.5 48,0 19.5,11.5 34,34 11.5,19.5 0,48 -11.5,19.5 -34,34 -19.5,11.5 -48,0 -19.5,-11.5 -34,-34 -11.5,-19.5" fill="url(#sg19)" opacity="0.95"/>
<polygon points="0,-32 7.7,-13 22.6,-22.6 13,-7.7 32,0 13,7.7 22.6,22.6 7.7,13 0,32 -7.7,13 -22.6,22.6 -13,7.7 -32,0 -13,-7.7 -22.6,-22.6 -7.7,-13" fill="#3d0070" opacity="0.9"/>
<line x1="0" y1="-50" x2="0" y2="50" stroke="#ffd700" stroke-width="1.5" opacity="0.7"/>
<line x1="-50" y1="0" x2="50" y2="0" stroke="#ffd700" stroke-width="1.5" opacity="0.7"/>
<line x1="-35" y1="-35" x2="35" y2="35" stroke="#00f5ff" stroke-width="1.5" opacity="0.7"/>
<line x1="35" y1="-35" x2="-35" y2="35" stroke="#00f5ff" stroke-width="1.5" opacity="0.7"/>
<line x1="0" y1="-50" x2="35" y2="35" stroke="#ff6030" stroke-width="1.2" opacity="0.6"/>
<line x1="0" y1="-50" x2="-35" y2="35" stroke="#ff6030" stroke-width="1.2" opacity="0.6"/>
<line x1="-50" y1="0" x2="35" y2="-35" stroke="#ff7eb3" stroke-width="1.2" opacity="0.6"/>
<line x1="-50" y1="0" x2="35" y2="35" stroke="#ff7eb3" stroke-width="1.2" opacity="0.6"/>
<line x1="50" y1="0" x2="-35" y2="-35" stroke="#ff7eb3" stroke-width="1.2" opacity="0.6"/>
<line x1="50" y1="0" x2="-35" y2="35" stroke="#ff7eb3" stroke-width="1.2" opacity="0.6"/>
<line x1="0" y1="50" x2="35" y2="-35" stroke="#ff6030" stroke-width="1.2" opacity="0.6"/>
<line x1="0" y1="50" x2="-35" y2="-35" stroke="#ff6030" stroke-width="1.2" opacity="0.6"/>
<circle r="10" fill="#bf5fff"/>
<circle r="5" fill="#e8e4f0"/>
</g>

<g transform="rotate(-75,340,340) translate(340,100)" fill="none" stroke="#6b1e00" stroke-width="5" stroke-linecap="round">
  <line x1="0" y1="-18" x2="0" y2="18"/>
  <path d="M0,-4 Q-18,-4 -18,-16 Q-18,-26 -8,-26"/>
  <path d="M0,-4 Q18,-4 18,-16 Q18,-26 8,-26"/>
</g>
<g transform="rotate(-45,340,340) translate(340,100)" fill="none" stroke="#5a4400" stroke-width="5" stroke-linecap="round">
  <circle cx="0" cy="6" r="13"/>
  <path d="M-13,-7 Q-13,-24 0,-24 Q13,-24 13,-7"/>
</g>
<g transform="rotate(-15,340,340) translate(340,100)" fill="none" stroke="#005560" stroke-width="5" stroke-linecap="round">
  <line x1="-9" y1="-20" x2="9" y2="-20"/>
  <line x1="-9" y1="20" x2="9" y2="20"/>
  <line x1="-9" y1="-20" x2="-9" y2="20"/>
  <line x1="9" y1="-20" x2="9" y2="20"/>
</g>
<g transform="rotate(15,340,340) translate(340,100)" fill="none" stroke="#3d0070" stroke-width="5" stroke-linecap="round">
  <path d="M10,-12 A14,14 0 1,0 10,12"/>
  <path d="M-10,12 A14,14 0 1,0 -10,-12"/>
</g>
<g transform="rotate(45,340,340) translate(340,100)" fill="none" stroke="#6b1e00" stroke-width="5" stroke-linecap="round">
  <circle cx="-6" cy="4" r="11"/>
  <path d="M5,4 Q20,4 20,-10 Q20,-24 8,-24"/>
</g>
<g transform="rotate(75,340,340) translate(340,100)" fill="none" stroke="#5a4400" stroke-width="5" stroke-linecap="round" stroke-linejoin="round">
  <path d="M-14,-20 L-14,8 Q-14,20 -4,20 Q6,20 6,8 L6,-20"/>
  <path d="M6,6 Q6,22 18,22"/>
</g>
<g transform="rotate(105,340,340) translate(340,100)" fill="none" stroke="#005560" stroke-width="5" stroke-linecap="round">
  <line x1="-18" y1="12" x2="18" y2="12"/>
  <path d="M-12,12 Q-12,-10 0,-10 Q12,-10 12,12"/>
</g>
<g transform="rotate(135,340,340) translate(340,100)" fill="none" stroke="#3d0070" stroke-width="5" stroke-linecap="round" stroke-linejoin="round">
  <path d="M-14,-18 L-14,6 Q-14,18 -4,18 Q6,18 6,6 L6,-18"/>
  <line x1="6" y1="6" x2="18" y2="18"/>
  <polyline points="10,18 18,18 18,10"/>
</g>
<g transform="rotate(165,340,340) translate(340,100)" fill="none" stroke="#6b1e00" stroke-width="5" stroke-linecap="round" stroke-linejoin="round">
  <line x1="-16" y1="16" x2="16" y2="-16"/>
  <polyline points="4,-16 16,-16 16,-4"/>
  <line x1="-8" y1="2" x2="6" y2="-12"/>
</g>
<g transform="rotate(195,340,340) translate(340,100)" fill="none" stroke="#5a4400" stroke-width="5" stroke-linecap="round" stroke-linejoin="round">
  <path d="M-16,-20 L-4,10 Q0,22 10,14 Q20,6 16,-8 Q12,-20 2,-18 Q-8,-16 -4,10"/>
</g>
<g transform="rotate(225,340,340) translate(340,100)" fill="none" stroke="#005560" stroke-width="5" stroke-linecap="round">
  <path d="M-18,-8 Q-9,-18 0,-8 Q9,2 18,-8"/>
  <path d="M-18,8 Q-9,-2 0,8 Q9,18 18,8"/>
</g>
<g transform="rotate(255,340,340) translate(340,100)" fill="none" stroke="#3d0070" stroke-width="5" stroke-linecap="round">
  <path d="M0,-22 Q-20,-12 -20,0 Q-20,12 0,22"/>
  <path d="M0,-22 Q20,-12 20,0 Q20,12 0,22"/>
  <line x1="-16" y1="0" x2="16" y2="0"/>
</g>

</svg>
